<svg width="466" height="9" viewBox="0 0 466 9" fill="none" xmlns="http://www.w3.org/2000/svg">
<path d="M62.6429 0.672119L63.6427 0.639451L61.3672 0.61753L62.2883 0.584105C63.3158 0.577451 64.7994 0.608295 65.4415 0.582296C65.4509 0.561238 64.3078 0.562179 63.9596 0.547791C63.6427 0.532774 63.3726 0.517555 63.1526 0.502315C63.7123 0.498735 64.3421 0.498548 65.0046 0.501766C65.9041 0.508249 66.7631 0.508569 67.4867 0.502687C68.987 0.495991 70.4114 0.483046 72.0315 0.472906L71.3033 0.427269L73.4321 0.424788C73.6675 0.427056 73.9075 0.419253 74.1425 0.422436C76.1005 0.449574 76.7822 0.423038 77.5808 0.399467C77.7409 0.393681 77.9418 0.388813 78.1783 0.384993C80.6244 0.378212 83.0098 0.418663 85.2891 0.432344C85.7254 0.436815 86.1529 0.443445 86.5413 0.451763C87.3761 0.467399 88.281 0.478665 89.1732 0.484529C90.0654 0.490393 90.9165 0.490669 91.6486 0.485331C93.2693 0.473974 95.1553 0.475355 97.1239 0.489341C97.7127 0.494349 98.2902 0.496382 98.8199 0.495309C99.3496 0.494237 99.8197 0.490084 100.2 0.483113L101.571 0.502751C102.073 0.487669 102.743 0.47675 103.538 0.470658C104.333 0.464567 105.238 0.463429 106.197 0.467315C107.219 0.471648 108.243 0.472319 109.305 0.47703C111.491 0.484985 113.588 0.484745 115.531 0.476317C118.45 0.470409 121.29 0.461914 124.247 0.45913C126.087 0.45501 127.867 0.447586 129.576 0.436906C131.632 0.426319 133.901 0.426685 136.274 0.437982C136.263 0.463619 135.239 0.462948 134.567 0.466595C132.395 0.476937 130.148 0.481031 127.899 0.487871C126.887 0.491437 125.911 0.496773 124.975 0.50385C123.402 0.513358 121.723 0.517832 119.965 0.517195C117.211 0.522003 114.57 0.533163 112.07 0.55056C111.877 0.552865 111.704 0.555821 111.553 0.55938C111.528 0.561754 111.532 0.564508 111.565 0.567379C111.597 0.570249 111.657 0.57314 111.739 0.575775C111.821 0.578409 111.922 0.580698 112.032 0.582423C112.143 0.584149 112.259 0.585253 112.369 0.58563C113.429 0.595834 114.566 0.606794 115.514 0.603047C115.551 0.602994 115.591 0.60317 115.632 0.603562C115.672 0.603954 115.712 0.604553 115.749 0.605315C117.985 0.626858 119.688 0.609233 121.345 0.604049C124.12 0.601486 126.765 0.591228 129.239 0.573431C129.614 0.570991 130.027 0.57031 130.462 0.571413C133.12 0.569873 135.555 0.55534 137.652 0.528498C138.523 0.519417 139.317 0.506833 140.265 0.500339C140.848 0.495925 141.34 0.487996 141.71 0.477028C142.081 0.46606 142.323 0.452279 142.422 0.436514C142.852 0.441573 143.285 0.445747 143.717 0.448986C143.973 0.450768 144.211 0.450106 144.38 0.447131C144.55 0.444157 144.639 0.439091 144.63 0.432958C144.638 0.415562 144.049 0.410808 143.538 0.40681C143.815 0.40123 144.135 0.396895 144.49 0.393907C146.486 0.376535 148.66 0.366606 150.965 0.364332C152.776 0.367984 154.126 0.346042 156.052 0.355406C156.288 0.357674 156.448 0.350945 156.647 0.348257C157.15 0.337732 157.804 0.33173 158.553 0.330772C159.302 0.329814 160.123 0.333928 160.944 0.342759C161.752 0.298129 163.985 0.327913 165.524 0.321594C166.069 0.337873 165.517 0.338075 165.514 0.343568C165.512 0.349062 165.514 0.343568 165.318 0.341678C163.902 0.379422 161.84 0.399431 159.422 0.398897C158.986 0.401892 158.576 0.405934 158.195 0.410986C157.616 0.418396 156.948 0.422534 156.219 0.423218C155.428 0.425438 154.718 0.431679 154.122 0.441642C153.767 0.443935 153.477 0.448867 153.281 0.45598C153.085 0.463093 152.989 0.472158 153.001 0.482332C153.268 0.488444 153.558 0.493728 153.861 0.497972C155.409 0.512346 156.899 0.512593 158.037 0.498664C160.018 0.474529 162.464 0.468664 164.6 0.450618C166.047 0.439395 167.61 0.433163 169.257 0.43204C169.257 0.43204 169.253 0.442112 169.253 0.443027C169.459 0.445986 169.673 0.44804 169.88 0.449075C169.88 0.449075 169.88 0.449075 169.882 0.444497C169.778 0.440817 169.642 0.437602 169.492 0.435224L168.982 0.43031C169.3 0.426009 169.579 0.417668 169.933 0.419239C170.675 0.421589 171.37 0.42002 171.975 0.414629C172.58 0.409238 173.083 0.400136 173.454 0.387869C174.13 0.370802 175.008 0.359209 176.03 0.353838C176.805 0.347267 177.545 0.339355 178.248 0.330139C178.248 0.330139 178.253 0.319152 178.571 0.311189C178.222 0.306358 177.863 0.302904 177.512 0.300985C176.015 0.300356 174.518 0.300644 173.059 0.30314C172.528 0.305913 172.037 0.310437 171.595 0.316623C170.349 0.328751 168.914 0.333056 167.373 0.329287C167.373 0.329287 167.059 0.326263 166.902 0.324751C167.229 0.298476 168.759 0.3123 169.281 0.292492C169.636 0.2904 170.268 0.288208 170.23 0.284168C170.16 0.27891 170.134 0.273762 170.154 0.269092C170.175 0.264422 170.241 0.260346 170.348 0.257157C170.455 0.253968 170.6 0.251744 170.773 0.250645C170.946 0.249546 171.142 0.2496 171.348 0.250802C173.04 0.253427 174.598 0.246848 175.928 0.231468C176.442 0.228141 177.033 0.228318 177.546 0.225906C177.862 0.225029 178.144 0.222439 178.377 0.218278C179.535 0.191339 181.186 0.178848 183.082 0.182682C183.99 0.182537 184.821 0.177752 185.531 0.168576C186.045 0.164333 186.316 0.176134 186.708 0.179914L188.322 0.182592L186.378 0.212599C186.953 0.247567 187.343 0.257756 188.053 0.255403C189.09 0.252091 190.092 0.247008 191.055 0.240179C191.766 0.23508 192.323 0.222974 193.344 0.23097C193.524 0.232186 193.691 0.231847 193.817 0.230011C194.898 0.209566 196.247 0.197473 197.774 0.194559C198.457 0.165277 199.869 0.179799 201.164 0.190441C201.489 0.169659 200.742 0.166139 200.272 0.157942C201.3 0.152203 202.327 0.144634 203.393 0.140189C203.707 0.137092 204.076 0.136303 204.472 0.137882C204.868 0.139461 205.28 0.143366 205.675 0.149292C205.872 0.153507 206.101 0.156142 206.314 0.156648C206.526 0.157155 206.706 0.155495 206.816 0.152013C207.334 0.140445 208.239 0.141813 208.64 0.12545C208.79 0.121305 209.018 0.119331 209.285 0.11988C209.552 0.120429 209.84 0.123467 210.097 0.128448C209.851 0.132196 209.637 0.136929 209.46 0.142543C208.822 0.161217 209.166 0.182931 210.178 0.211069C211.523 0.200114 212.906 0.191368 214.134 0.176533C214.81 0.16608 215.673 0.162131 216.625 0.165132C217.578 0.168133 218.582 0.177964 219.525 0.19352C219.868 0.199632 220.245 0.20293 220.581 0.202758C220.917 0.202587 221.187 0.198958 221.338 0.192593C221.421 0.185845 221.424 0.177988 221.348 0.169704L220.406 0.160633C220.406 0.160633 220.41 0.152393 220.411 0.150561L221.676 0.140681C222.348 0.136119 223.058 0.133767 223.691 0.128827C224.607 0.118088 225.682 0.113423 226.85 0.115115C227.93 0.117635 228.984 0.117948 230.001 0.116052C230.987 0.114514 231.627 0.0940083 232.537 0.085305C233.225 0.0787301 233.998 0.0756216 234.826 0.0760968C236.258 0.0771897 237.535 0.0686292 238.541 0.0511955C239.978 0.0990566 240.606 0.104188 241.68 0.0814313L242.196 0.0735265L242.388 0.0845718L242.784 0.0791956C243.536 0.0717272 244.289 0.0642595 245.079 0.0580847C246.204 0.0558691 247.45 0.0618554 248.697 0.0754595C248.932 0.0777272 249.282 0.0884543 249.514 0.0971311C249.747 0.105808 250.286 0.133073 250.673 0.150586C250.389 0.167168 250.067 0.183372 249.862 0.201625C249.845 0.204616 249.861 0.207949 249.907 0.211355C249.953 0.214762 250.028 0.218149 250.127 0.221242C250.225 0.224334 250.343 0.227048 250.473 0.229164C250.602 0.23128 250.739 0.23274 250.872 0.233426C251.132 0.235081 251.385 0.235651 251.62 0.235114C252.764 0.22922 253.849 0.2206 254.862 0.209339C255.215 0.200692 255.728 0.196649 256.32 0.197854C256.912 0.199058 257.549 0.20544 258.13 0.215988C259.446 0.198472 261.022 0.190444 262.751 0.192455C264.493 0.172461 266.699 0.174399 268.288 0.145569C268.284 0.154725 268.514 0.168896 268.787 0.176119C269.216 0.186991 269.691 0.196545 270.192 0.204374L273.779 0.202144C273.952 0.212224 274.159 0.222218 274.396 0.231997C274.563 0.239858 274.828 0.246868 275.135 0.251541C275.442 0.256213 275.766 0.258182 276.04 0.257028C276.75 0.25559 277.306 0.244401 278.207 0.256756C276.992 0.282317 275.256 0.291668 273.309 0.283138C271.495 0.278894 269.778 0.282215 268.222 0.292979C267.708 0.296306 267.036 0.301783 266.913 0.312552C266.663 0.34233 265.717 0.344246 264.612 0.346482C263.739 0.346677 262.963 0.352526 262.348 0.363551C261.734 0.374576 261.298 0.39046 261.077 0.409896C261.069 0.427292 261.3 0.440548 262.085 0.44536L265.348 0.463912C265.787 0.455761 266.198 0.446836 266.581 0.437174C267.236 0.42336 268.078 0.415116 269.043 0.413084C270.007 0.411052 271.068 0.415287 272.142 0.425459C272.692 0.43075 273.241 0.436041 273.598 0.429371C273.908 0.42239 274.188 0.41464 274.436 0.406178C274.475 0.401369 274.477 0.396113 274.443 0.390613C274.652 0.391876 274.863 0.393914 275.071 0.39666C276.788 0.433433 277.974 0.424629 279.008 0.405156C279.286 0.399562 279.486 0.392295 279.765 0.385785C280.044 0.379275 280.125 0.372707 280.401 0.372605C282.607 0.373628 283.026 0.317894 284.843 0.307812C284.924 0.305204 284.967 0.301824 284.969 0.297984C284.97 0.294144 284.931 0.289967 284.853 0.285838C284.71 0.282604 284.548 0.280078 284.384 0.278493C284.219 0.276908 284.057 0.276315 283.912 0.276767C283.054 0.275742 282.326 0.282711 281.854 0.296483C281.507 0.303143 281.136 0.309086 280.743 0.314284L278.643 0.251757C280.424 0.246813 282.084 0.235618 283.583 0.218429C283.901 0.212297 284.491 0.215219 284.965 0.213346L288.439 0.197164C289.15 0.19298 289.709 0.177213 290.803 0.197867C290.803 0.197867 291.473 0.197883 291.633 0.192985C291.793 0.188088 292.475 0.159721 292.877 0.141526C293.429 0.142239 294.214 0.148883 294.532 0.142751C295.077 0.129276 295.533 0.113628 295.892 0.0960878L298.056 0.103141C298.126 0.121852 298.118 0.13995 298.032 0.157161C297.93 0.173887 298.008 0.192619 298.26 0.211824C298.511 0.231029 298.93 0.250162 299.48 0.26766L301.959 0.363266C302.323 0.368339 302.7 0.370868 303.038 0.37051C303.377 0.370152 303.661 0.366924 303.851 0.361264C304.687 0.342649 305.64 0.326083 306.476 0.307468C307.692 0.319184 307.52 0.352466 308.456 0.374355L311.32 0.401945C311.893 0.441491 312.467 0.479206 311.275 0.501744C311.037 0.505886 311.266 0.520972 311.066 0.529154C312.158 0.554386 313.26 0.556729 314.318 0.56968C314.76 0.581139 315.141 0.593848 315.444 0.607192C315.8 0.627955 316.434 0.647347 317.209 0.661181C317.984 0.675015 318.839 0.682181 319.587 0.681132C320.864 0.684746 322.193 0.694127 323.515 0.708856C323.967 0.714028 324.423 0.71695 324.851 0.717425C325.279 0.717899 325.669 0.715916 325.996 0.711608C327.176 0.699969 328.137 0.680723 328.819 0.655124C329.505 0.632683 330.487 0.61749 331.676 0.61092C333.834 0.631708 334.443 0.680788 335.844 0.718199L333.747 0.737539C333.739 0.75585 333.966 0.777345 333.096 0.782764C332.227 0.788183 332.733 0.802252 333.081 0.817557C333.213 0.82554 333.441 0.833137 333.726 0.839062C334.01 0.844988 334.334 0.848876 334.642 0.850071L336.529 0.859973C337.201 0.864056 337.833 0.863477 338.357 0.858302C338.88 0.853126 339.275 0.843555 339.498 0.830637C339.762 0.818016 340.155 0.808037 340.654 0.801312C341.272 0.788312 341.758 0.771888 342.094 0.752658L344.731 0.759669C344.775 0.742317 345.08 0.728313 345.593 0.720023C346.106 0.711733 346.797 0.709666 347.549 0.714171L349.321 0.717446C351.289 0.720779 351.687 0.712656 352.064 0.662037L349.455 0.593681C349.702 0.569397 349.948 0.547859 350.194 0.526321C349.518 0.502568 348.658 0.481587 347.7 0.465509C346.794 0.447404 345.868 0.430197 344.925 0.413954C343.908 0.397718 342.85 0.384766 341.597 0.367178C341.364 0.360332 341.015 0.347775 340.586 0.336292C340.159 0.325207 339.717 0.314501 339.261 0.304215C339.269 0.285903 339.277 0.269423 339.049 0.249759C339.786 0.25157 340.565 0.258161 341.317 0.268935C342.069 0.27971 342.77 0.29433 343.356 0.311476C343.455 0.314549 343.572 0.317271 343.701 0.319458C343.829 0.321644 343.965 0.323245 344.099 0.324151C345.397 0.328383 346.096 0.350751 346.832 0.37899C347.308 0.392761 347.895 0.403881 348.512 0.410807C349.689 0.422146 350.864 0.438979 352 0.452686C352.35 0.457447 352.708 0.460895 353.06 0.46289C354.216 0.468968 355.4 0.480375 356.552 0.496529C356.921 0.500119 357.284 0.505717 357.61 0.512855C357.935 0.519993 358.215 0.528463 358.424 0.537559C358.205 0.550543 358.118 0.565656 358.168 0.581987C358.163 0.592974 359.023 0.60953 359.45 0.622843C359.878 0.636157 359.13 0.633553 358.892 0.636779C357.903 0.646557 357.742 0.654201 358.476 0.685188C358.719 0.694852 358.895 0.704976 358.992 0.714928C359.089 0.724881 359.106 0.734452 359.042 0.743047C359.027 0.776923 358.698 0.806861 358.525 0.841057C359.068 0.859167 359.927 0.876637 360.113 0.902332C360.176 0.907886 360.285 0.913485 360.433 0.918723C360.58 0.923961 360.762 0.928708 360.966 0.932621C361.494 0.940479 361.986 0.950809 362.404 0.962811C362.822 0.974813 363.156 0.988166 363.378 1.00183C363.456 1.00758 363.612 1.01319 363.814 1.01753C364.017 1.02187 364.252 1.02462 364.471 1.02524C364.733 1.02604 364.958 1.02419 365.1 1.02007C365.241 1.01595 365.287 1.00988 365.23 1.00312C365.185 0.989975 365.099 0.976541 364.972 0.962933C364.976 0.952861 364.981 0.94279 364.751 0.927704C365.529 0.928549 366.367 0.93508 367.174 0.946589C367.982 0.958098 368.728 0.974144 369.332 0.992982C369.993 1.01223 370.615 1.03292 371.353 1.05567C371.339 1.0868 371.339 1.0868 372.895 1.13122L380.155 1.1092L381.759 1.13477C383.247 1.15645 383.564 1.15215 384.362 1.13041L384.883 1.11152C386.177 1.12399 387.668 1.13836 388.279 1.09458C388.623 1.11813 388.817 1.12551 388.775 1.12971C388.556 1.16934 388.048 1.20513 387.27 1.23567C387.07 1.24294 386.947 1.25279 386.708 1.25968C385.983 1.29434 385.963 1.34052 386.65 1.38878C386.98 1.40995 387.422 1.43094 387.961 1.45107C387.427 1.48762 386.657 1.5201 385.672 1.54764C384.831 1.56948 384.169 1.5956 383.707 1.62525C383.302 1.65474 382.622 1.67943 381.704 1.69791C381.234 1.70631 380.916 1.71878 380.781 1.73409C380.872 1.77247 381.158 1.81228 381.635 1.85265C381.743 1.86518 381.964 1.87801 382.28 1.89015C382.596 1.90229 382.998 1.91339 383.455 1.9226C383.455 1.9226 383.688 1.93036 383.804 1.93516C384.061 1.98064 383.921 2.02319 383.394 2.05994C383.322 2.06984 383.129 2.07795 382.835 2.08338C382.541 2.08881 382.157 2.09136 381.725 2.09076C380.818 2.09123 379.989 2.09611 379.121 2.09878C378.181 2.10062 377.382 2.10951 376.806 2.12452C376.231 2.13953 375.901 2.1601 375.851 2.18407C375.867 2.19065 375.865 2.19708 375.843 2.20329C375.828 2.20652 375.827 2.20989 375.838 2.21337L378.096 2.27557L375.987 2.32055C375.973 2.35168 377.111 2.36264 377.733 2.3815L377.451 2.39625C377.052 2.40621 376.426 2.3965 375.876 2.39212L375.327 2.38683L375.32 2.40148C375.074 2.42302 373.82 2.40909 373.418 2.42637C373.016 2.44365 373.404 2.4575 374.148 2.46835C374.668 2.47663 375.214 2.48235 375.745 2.48507C376.276 2.4878 376.778 2.48747 377.214 2.48409C377.469 2.48082 377.673 2.47589 377.812 2.46962C378.649 2.44125 379.596 2.41533 380.644 2.39208C381.44 2.37217 382.481 2.35897 383.695 2.35343C384.045 2.34998 384.484 2.35048 384.936 2.35483C385.388 2.35919 385.824 2.36712 386.167 2.37724L386.799 2.37504C386.799 2.37504 387.188 2.38523 387.148 2.3876C387.053 2.42617 387.503 2.46953 388.432 2.51124L387.798 2.51984C386.851 2.52176 387.549 2.54595 387.464 2.56076C386.793 2.56258 385.89 2.55663 385.644 2.57634L385.171 2.57821L385.367 2.5801L385.567 2.57284L386.543 2.59327C386.146 2.60048 385.867 2.60791 385.51 2.61275C385.316 2.61617 385.169 2.62091 385.078 2.62668C384.988 2.63244 384.955 2.63911 384.983 2.64629C385.026 2.65732 384.953 2.66734 384.77 2.6754C384.587 2.68345 384.301 2.68928 383.938 2.69231C383.503 2.69548 383.3 2.70915 383.06 2.71513L384.45 2.78001C384.45 2.78001 383.861 2.77434 384.211 2.78506L384.215 2.77591L384.958 2.7895C385.504 2.80211 385.858 2.80368 386.1 2.79039C386.342 2.77709 386.336 2.79265 386.456 2.78738C386.451 2.79928 386.17 2.80945 385.93 2.81817C385.642 2.82569 385.309 2.83203 384.937 2.83711C385.822 2.88334 385.861 2.88463 384.906 2.90486C383.951 2.92509 384.377 2.94298 383.546 2.95152C382.714 2.96007 383.805 2.98805 384.395 2.99097C384.83 2.99257 385.282 2.99658 385.722 3.00272C386.161 3.00886 386.577 3.01698 386.94 3.02652L386.922 3.06681C386.662 3.06524 386.397 3.06269 386.137 3.05925C385.238 3.04323 384.418 3.02797 383.74 3.04535L384.2 3.07278L381.6 3.07255C381.752 3.09441 382.236 3.1172 382.951 3.13614C382.905 3.14948 382.899 3.16325 382.932 3.17734C382.928 3.18741 382.654 3.18293 382.495 3.18508C381.921 3.19062 381.471 3.20045 381.183 3.21372C380.895 3.22698 380.779 3.24327 380.845 3.26115C380.839 3.27671 381.852 3.30211 382.405 3.29733C383.81 3.29099 385.361 3.2925 386.974 3.3018C387.922 3.29805 387.9 3.25739 389.548 3.27418C389.649 3.29233 389.509 3.30853 389.149 3.32032C388.788 3.33211 388.226 3.33884 387.548 3.33951C388.083 3.37777 390.212 3.37437 390.469 3.41639C389.938 3.41687 389.354 3.41352 388.777 3.40666C388.199 3.39981 387.648 3.38969 387.177 3.37731C387.073 3.37418 386.948 3.37149 386.813 3.36949C386.678 3.36749 386.537 3.36625 386.404 3.36588C386.27 3.36551 386.149 3.36603 386.05 3.36738C385.951 3.36873 385.878 3.37088 385.839 3.37362C386.187 3.38709 386.574 3.40277 387.001 3.417C387.428 3.43123 387.544 3.43786 387.819 3.43959C389.898 3.45962 391.056 3.51308 392.896 3.54091C393.367 3.54545 393.514 3.56893 393.12 3.56882C392.744 3.56857 392.415 3.57114 392.17 3.57624C391.924 3.58135 391.771 3.58878 391.728 3.5977C391.482 3.60943 391.16 3.61961 390.768 3.628C392.736 3.67762 395.01 3.71788 397.375 3.74498C397.824 3.75046 398.279 3.75259 398.673 3.75105C399.903 3.74284 401.227 3.73893 402.618 3.7394C403.109 3.73878 403.551 3.73555 403.923 3.7299C405.151 3.71415 406.211 3.72344 407.297 3.7624L409.082 3.82373C409.077 3.83564 408.873 3.85023 408.746 3.86924L410.072 3.89948L418.729 3.75115L420.863 3.82412L423.434 3.802C423.642 3.80312 423.855 3.80517 424.062 3.80804C424.683 3.82966 425.186 3.85105 425.846 3.87121C426.507 3.89137 427.533 3.88746 428.35 3.91096C429.167 3.93447 429.878 3.93028 430.819 3.94118C430.986 3.9625 430.977 3.98276 430.793 4.0007C430.784 4.01992 430.383 4.03446 430.375 4.05277C430.453 4.0707 430.347 4.08708 430.065 4.10043C429.784 4.11377 429.337 4.12367 428.765 4.12921C427.292 4.17839 425.443 4.21879 423.273 4.24918C423.082 4.25162 422.929 4.2553 422.826 4.25999C422.722 4.26469 422.669 4.2703 422.67 4.27647C422.741 4.29391 422.65 4.30999 422.405 4.32355C422.161 4.3371 421.768 4.34778 421.256 4.35481C421.119 4.35645 421.021 4.35935 420.976 4.36315C420.785 4.36669 420.656 4.37187 420.602 4.37819C420.547 4.38452 420.569 4.39178 420.664 4.39926C420.76 4.40675 420.927 4.41421 421.148 4.42093C421.369 4.42764 421.638 4.43339 421.928 4.4376C422.352 4.44468 422.783 4.45129 423.219 4.4574C423.217 4.46289 422.821 4.46644 422.898 4.47086C423.115 4.48515 423.207 4.49929 423.167 4.51215C423.127 4.52501 422.956 4.53625 422.668 4.54496L425.298 4.6549C426.67 4.66336 428.062 4.68398 429.212 4.71283C429.236 4.71867 429.197 4.72396 429.098 4.72817C429 4.73238 428.845 4.73537 428.65 4.73684C428.135 4.74292 427.658 4.7512 427.104 4.75781C426.766 4.76223 426.497 4.76879 426.31 4.7771C426.124 4.78541 426.025 4.7953 426.018 4.8062L427.459 4.84399C427.098 4.85799 426.819 4.86541 426.579 4.87413C426.786 4.88766 427.105 4.90095 427.509 4.91298C427.914 4.92501 428.394 4.93545 428.912 4.94351C429.048 4.94497 429.185 4.94579 429.313 4.94592C429.442 4.94605 429.56 4.9455 429.66 4.94428C430.577 4.92184 431.828 4.94217 433.041 4.96122C434.254 4.98026 434.919 4.99218 435.818 5.00728L437.398 4.99951C437.833 5.0066 438.231 5.01569 438.562 5.02606C438.893 5.03643 439.146 5.04779 439.302 5.05923C439.293 5.07937 438.507 5.07364 438.072 5.07864C437.067 5.09789 435.673 5.10459 434.123 5.09761C433.731 5.09383 433.373 5.10142 433.017 5.10443C432.253 5.11205 431.526 5.12101 430.837 5.13125C430.39 5.13948 429.978 5.14872 429.604 5.1589C429.592 5.18454 431.362 5.19239 430.447 5.21117C430.8 5.21457 430.955 5.22157 431.114 5.21759C432.268 5.22644 433.374 5.22721 434.305 5.21982C436.085 5.20434 438.165 5.20201 440.376 5.21302C442.757 5.22382 444.987 5.22008 446.882 5.20214C447.61 5.19694 448.446 5.19681 449.325 5.20176C450.372 5.20977 451.392 5.21239 452.317 5.20943C452.619 5.20751 452.966 5.20774 453.327 5.21011C453.689 5.21248 454.056 5.21691 454.399 5.22305C454.396 5.22946 454.117 5.23597 454.195 5.23856C455.32 5.27882 455.89 5.32477 457.528 5.36262C458.587 5.37283 459.803 5.38454 460.367 5.35779C460.931 5.33103 460.623 5.31336 459.109 5.26474C459.386 5.26203 459.735 5.26244 460.093 5.26589C460.452 5.26934 460.797 5.27563 461.07 5.28364L462.355 5.319L463.521 5.35323C463.512 5.37429 463.505 5.39077 463.497 5.40817C463.451 5.4269 463.662 5.4479 464.1 5.46823C464.36 5.4792 464.592 5.49035 464.795 5.50159C465.615 5.54647 465.976 5.59167 465.839 5.63211C465.506 5.69119 464.94 5.74727 464.149 5.79974C463.298 5.85131 462.956 5.91146 462.301 5.96585C461.957 5.99092 461.511 6.01431 460.969 6.03578C459.964 6.08218 458.84 6.12745 457.834 6.17477C456.827 6.22208 455.629 6.25927 454.467 6.3005C452.7 6.35204 450.758 6.39935 448.651 6.44217C447.375 6.47586 446.06 6.50916 444.901 6.54581C443.526 6.58758 441.855 6.62218 439.929 6.64873C438.244 6.67634 436.775 6.71031 435.549 6.74998C435.421 6.75424 435.326 6.75921 435.267 6.76473C435.146 6.79761 434.552 6.82419 433.578 6.84042C433.675 6.84916 433.789 6.85793 433.921 6.86671C434.105 6.87699 434.174 6.8873 434.121 6.89629C434.068 6.90529 433.894 6.91256 433.623 6.91717C432.844 6.93034 432.223 6.948 431.787 6.96937C431.618 6.97512 431.529 6.98246 431.525 6.99075C431.521 6.99905 431.604 7.00804 431.765 7.01698C431.914 7.02629 431.958 7.03549 431.891 7.04337C431.824 7.05125 431.65 7.05746 431.391 7.06119C430.743 7.0753 430.04 7.08788 429.286 7.09884C427.682 7.12261 425.76 7.13537 423.634 7.13635C423.399 7.13408 423.198 7.14135 422.924 7.1387C421.4 7.13404 420.028 7.14095 418.975 7.15859C417.708 7.17122 416.365 7.17943 415.02 7.19038C413.062 7.20224 411.29 7.22199 409.753 7.24907C407.863 7.24558 406.942 7.27991 405.4 7.29081C403.986 7.3032 402.661 7.31904 401.438 7.33817C399.456 7.36596 397.474 7.39193 395.53 7.42194C393.676 7.44247 392 7.46917 390.529 7.50158C389.971 7.51552 388.832 7.5073 388.507 7.53083C388.181 7.55436 387.352 7.55741 386.716 7.56876L384.693 7.59984C384.349 7.60631 383.964 7.61154 383.543 7.61543C381.606 7.62988 380.368 7.66669 378.587 7.68447L378.391 7.68258C375.349 7.74537 371.773 7.79265 367.768 7.823C365.47 7.85144 362.901 7.86808 360.446 7.89408C359.924 7.91664 358.433 7.90319 357.753 7.92515C357.073 7.94711 355.814 7.94417 354.864 7.95341C353.914 7.96265 353.002 7.97593 351.974 7.98259C351.083 7.98866 350.36 8.00128 349.87 8.01932C348.716 8.05145 347.252 8.07562 345.543 8.09074C343.287 8.11223 341.186 8.14073 338.855 8.15322C338.955 8.17032 338.87 8.186 338.608 8.19867C338.346 8.21134 337.917 8.22053 337.365 8.2253C334.912 8.24856 332.73 8.28088 330.238 8.30285L329.566 8.30741L322.092 8.36782C320.075 8.38334 318.137 8.39961 316.081 8.41567C315.257 8.40773 315.326 8.43046 314.774 8.42975C314.582 8.41962 314.386 8.4159 314.146 8.4237L314.14 8.43743L305.635 8.51274C302.328 8.54824 298.812 8.57584 295.117 8.59532C294.25 8.60249 293.453 8.61238 292.739 8.62483C292.061 8.63218 291.348 8.63821 290.603 8.64288C289.585 8.64627 288.597 8.65117 287.642 8.65757C285.149 8.67954 282.503 8.6945 279.738 8.70924C276.973 8.72399 274.915 8.74462 272.465 8.76056C270.805 8.77124 269.146 8.78008 267.409 8.78634C266.581 8.78939 265.52 8.78285 264.652 8.78369C263.785 8.78453 263.508 8.78647 263.426 8.79486C263.139 8.81877 262.158 8.81115 261.408 8.81404C259.947 8.8202 259.713 8.81427 259.106 8.76153L260.814 8.732C261.227 8.7234 261.77 8.71872 262.392 8.71843C263.013 8.71813 263.691 8.72223 264.361 8.73031C264.626 8.73392 264.898 8.73636 265.162 8.73747C265.425 8.73859 265.674 8.73836 265.895 8.73681C267.675 8.72177 269.417 8.70361 271.118 8.6869L271.357 8.68184L271.182 8.63234C270.936 8.62902 270.684 8.6266 270.437 8.62516L261.678 8.65113C259.666 8.65657 257.54 8.65264 255.567 8.65847C253.594 8.66429 252.529 8.6669 250.991 8.66956C250.338 8.66958 249.667 8.66834 248.983 8.66585C249.003 8.66084 249.005 8.65563 248.99 8.65028C248.994 8.64204 248.999 8.63106 248.687 8.62437C248.335 8.61433 247.888 8.60674 247.435 8.60312C247.016 8.60153 246.617 8.60172 246.253 8.60369C244.486 8.61131 242.384 8.59866 240.398 8.56843L239.871 8.60105C237.072 8.60352 234.234 8.60652 231.316 8.6106C230.728 8.61032 230.096 8.60644 229.469 8.59924C228.802 8.59282 228.14 8.57449 227.435 8.56677C226.75 8.56241 226.077 8.55993 225.428 8.5594C225.571 8.55096 225.773 8.54361 226.029 8.5376C226.291 8.53434 226.469 8.52847 226.536 8.52085C226.603 8.51323 226.557 8.50425 226.403 8.49522C226.134 8.47976 225.983 8.46451 226.419 8.45952C226.814 8.45292 227.075 8.44264 227.171 8.42989C227.268 8.41713 227.196 8.40243 226.963 8.38752C226.852 8.37863 226.764 8.3698 226.699 8.36107L226.503 8.35918C225.768 8.33002 224.509 8.32617 223.533 8.30482C223.092 8.29969 222.649 8.29801 222.274 8.30005C221.289 8.30067 220.341 8.30442 219.317 8.30375C218.829 8.30356 218.307 8.30072 217.784 8.29541C217.039 8.28823 216.96 8.28748 216.387 8.24702C217.021 8.24353 217.496 8.23372 217.733 8.21924C217.969 8.20476 217.952 8.1865 217.684 8.16755C216.993 8.12687 216.264 8.08398 213.788 8.06841C214.55 8.06171 215.277 8.05367 215.966 8.04433C216.168 8.04197 216.309 8.03769 216.372 8.03207C216.434 8.02645 216.414 8.01976 216.314 8.0129C216.214 8.00604 216.039 7.99933 215.813 7.99367C215.587 7.98802 215.32 7.98368 215.049 7.98124C213.71 7.9646 212.349 7.95659 211.119 7.9581C210.093 7.96201 209.183 7.96979 207.997 7.97768L206.506 7.96332C206.509 7.95783 206.275 7.9519 206.316 7.94861C206.566 7.91883 206.855 7.88943 207.145 7.85729C206.438 7.84573 205.805 7.8303 205.319 7.81276C204.832 7.79522 204.51 7.77628 204.392 7.75812C204.335 7.75278 204.325 7.74764 204.361 7.74306C204.397 7.73848 204.479 7.73458 204.6 7.73163C204.955 7.72558 205.213 7.71684 205.354 7.70609C205.496 7.69533 205.517 7.68285 205.416 7.6696L204.135 7.62691C200.722 7.61325 197.406 7.60938 194.25 7.61537L191.41 7.62295C191.021 7.61184 191.102 7.60527 191.419 7.6028C191.735 7.60033 192.642 7.59804 193.274 7.59585C193.823 7.59485 194.294 7.58992 194.643 7.58152C194.992 7.57312 195.207 7.56154 195.266 7.54791L194.106 7.4972C194.111 7.48621 194.118 7.47064 194.631 7.46823C194.975 7.46466 195.21 7.45756 195.3 7.44809C195.39 7.43861 195.33 7.42731 195.128 7.416C195.07 7.40723 195.074 7.39887 195.139 7.39128C195.89 7.38564 196.641 7.38092 197.314 7.37361C197.629 7.37057 197.885 7.36546 198.065 7.35862C198.244 7.35179 198.344 7.34339 198.356 7.334C198.347 7.32498 198.247 7.31529 198.067 7.30573C197.886 7.29616 197.629 7.28698 197.317 7.27893C196.198 7.27389 195.218 7.28031 194.59 7.2968C194.386 7.30779 194.02 7.3155 193.54 7.31892C193.06 7.32234 192.489 7.32131 191.902 7.31596C191.229 7.30977 190.581 7.30942 190.073 7.31498C189.565 7.32053 189.23 7.33163 189.13 7.34627C188.461 7.34534 187.87 7.34517 187.28 7.34316C186.582 7.34031 185.94 7.3424 185.425 7.3492C184.589 7.35717 183.674 7.36194 182.7 7.36341C179.899 7.36953 177.099 7.37658 174.413 7.38933C173.703 7.3926 173.108 7.40066 172.398 7.4021C171.688 7.40354 171.17 7.41602 170.23 7.4042C170.053 7.40257 169.879 7.40193 169.722 7.40233C169.564 7.40273 169.428 7.40415 169.323 7.4065C167.845 7.43077 166.057 7.4448 164.064 7.44779C161.377 7.46329 158.574 7.47491 155.888 7.49133C155.107 7.49798 154.378 7.50665 153.709 7.51723C153.196 7.52436 152.654 7.5305 152.085 7.53561C151.65 7.5397 151.217 7.5392 151.366 7.55811C151.515 7.57702 150.809 7.5693 150.415 7.56827C149.075 7.56762 147.692 7.56384 146.283 7.55697C144.889 7.54858 143.549 7.54724 142.345 7.55305C141.476 7.55755 140.604 7.56846 139.391 7.54942C139.396 7.53935 139.4 7.52928 139.602 7.51743C138.588 7.4954 137.461 7.47815 136.315 7.46711C135.169 7.45606 134.036 7.45155 133.011 7.45394L131.415 7.41006C131.049 7.40611 130.682 7.40391 130.336 7.40358C129.991 7.40326 129.675 7.40482 129.406 7.40818C129.198 7.41037 128.932 7.41013 128.658 7.40749C128.384 7.40485 128.121 7.4 127.916 7.39382C127.615 7.38622 127.262 7.3803 126.899 7.37681C126.536 7.37331 126.18 7.37239 125.875 7.37416C124.898 7.37479 123.826 7.36828 122.771 7.35529C122.472 7.34553 122.267 7.33474 122.181 7.32427C122.095 7.3138 122.131 7.3041 122.285 7.29636C122.53 7.28288 122.636 7.2671 122.596 7.24996C122.557 7.23282 122.372 7.21469 122.054 7.19666C121.884 7.18543 121.798 7.17428 121.803 7.1639C121.807 7.15351 121.902 7.1441 122.081 7.13623C122.727 7.10108 122.459 7.08561 121.019 7.04416C120.785 7.03722 120.51 7.03109 120.214 7.02618C119.918 7.02127 119.606 7.01767 119.298 7.01563C118.581 7.01212 117.881 7.01062 117.212 7.01116C116.82 7.00738 116.461 7.01497 116.028 7.01539C113.86 7.01749 113.474 6.99998 112.624 6.96236L112.005 6.93526C110.981 6.91681 109.887 6.90314 108.8 6.89522C107.714 6.88729 106.662 6.88532 105.721 6.88944C105.35 6.89176 104.908 6.89041 104.462 6.88558C103.018 6.87137 101.584 6.86445 100.255 6.86528C99.429 6.86628 98.5128 6.86065 97.6163 6.84908C96.7198 6.83751 95.8812 6.82048 95.2013 6.80005C94.5903 6.78163 93.8257 6.76655 93.014 6.75691C92.0724 6.74784 91.9225 6.73076 92.3636 6.71386C92.8046 6.69696 93.5636 6.67392 94.242 6.65471C94.4786 6.64815 94.6062 6.63919 94.6109 6.62884C94.6155 6.61849 94.4969 6.60717 94.2683 6.59612C94.0709 6.5759 93.9737 6.55612 93.9794 6.53724C93.9908 6.52933 93.9288 6.52077 93.7975 6.51213C93.6662 6.5035 93.4687 6.49498 93.2183 6.48717C92.9679 6.47935 92.6704 6.47242 92.3459 6.46683C92.0213 6.46124 91.6773 6.45713 91.337 6.45477C89.8853 6.44079 88.4729 6.42718 87.0184 6.41961C86.4054 6.41555 85.7857 6.40958 85.1744 6.40184C83.9041 6.38109 82.5716 6.36575 81.2543 6.35672C80.6309 6.35292 79.9983 6.34319 79.4933 6.32964C77.9299 6.29452 76.467 6.25637 75.1311 6.2159C74.7962 6.20281 74.3773 6.19066 73.9005 6.18021C73.4238 6.16976 72.8996 6.16124 72.3607 6.15519C71.9291 6.15103 71.5409 6.13809 71.1899 6.13011C70.8729 6.1083 70.7653 6.08688 70.8772 6.06785C70.9891 6.04882 71.3169 6.03282 71.8297 6.02133C72.3083 6.00847 72.748 5.99432 73.1485 5.97979C73.6491 5.96685 74.2653 5.95696 74.9743 5.95048C75.8023 5.93978 76.3736 5.92125 76.6137 5.8973C74.142 5.87349 71.7177 5.83175 69.7355 5.85863L68.0524 5.83322C68.059 5.81857 68.0647 5.80575 68.0701 5.79385C68.3562 5.77033 68.3684 5.743 68.1058 5.71419C67.9284 5.7006 67.8888 5.6874 67.9908 5.67595C68.0928 5.6645 68.3328 5.6552 68.6867 5.64899C70.7201 5.59593 73.1428 5.55306 75.0205 5.49575C75.6304 5.48326 76.3669 5.4745 77.1992 5.46984C77.9909 5.46183 77.8814 5.44239 76.865 5.42432C76.2982 5.41512 75.7234 5.40651 75.1428 5.39853C72.7724 5.41248 72.0342 5.4771 69.2752 5.47902L67.7295 5.4108C67.387 5.41188 67.0571 5.41362 66.7421 5.416L62.3408 5.47751C61.9702 5.4816 61.6976 5.48889 61.554 5.49856C61.4103 5.50823 61.4014 5.51989 61.5282 5.53221C61.6195 5.54771 61.6128 5.56254 61.5085 5.57616C61.4439 5.58564 61.5522 5.59693 61.8097 5.60756C62.39 5.63155 61.7954 5.63961 61.4365 5.64903C61.3406 5.65036 61.2268 5.65105 61.1017 5.65106C60.9765 5.65108 60.8426 5.65042 60.7075 5.64911C60.5725 5.64781 60.4391 5.6459 60.315 5.64348C60.191 5.64107 60.0787 5.6382 59.9849 5.63504C59.2064 5.61375 58.5075 5.59047 57.7302 5.56643C58.0985 5.53595 57.3682 5.49489 58.0119 5.46523C58.0756 5.45975 58.0854 5.45351 58.041 5.44692C57.9965 5.44032 57.8986 5.4335 57.7533 5.42688C57.3785 5.40978 57.1632 5.3921 57.1291 5.37563C57.095 5.35916 57.2432 5.34447 57.5589 5.33305L57.5635 5.32298C56.5115 5.2963 56.6436 5.26538 56.1459 5.233L55.1683 5.21623C52.7432 5.17631 52.7428 5.17723 50.8448 5.19205C50.3801 5.17378 50.856 5.16733 51.2128 5.16249L54.1877 5.11851C56.1315 5.08942 58.1521 5.06474 60.3681 5.04379C62.5841 5.02284 65.004 4.98638 67.2633 4.95665C67.3761 4.95476 67.4572 4.95199 67.4999 4.94856C67.5425 4.94514 67.5455 4.94115 67.5085 4.93694C67.3984 4.93286 67.2605 4.92914 67.1051 4.92605C66.9496 4.92296 66.7805 4.92059 66.6102 4.91909C65.8255 4.91153 65.0389 4.90855 64.2137 4.90336L62.6807 4.89503L62.1385 4.87418C61.7895 4.86162 61.5209 4.84524 61.091 4.83742C60.7398 4.83179 60.3685 4.82822 60.0155 4.82709C59.6626 4.82595 59.341 4.82729 59.0844 4.83096C58.3708 4.84064 57.7352 4.85199 57.0604 4.86296C56.3857 4.87393 56.0268 4.88335 55.4325 4.8905C54.2064 4.90017 53.0306 4.91187 51.91 4.92553C51.0014 4.94615 50.1751 4.96891 49.4365 4.99365C48.9587 5.00468 48.5197 5.01701 47.6152 5.01289C47.1696 5.00664 46.7695 4.99719 46.4859 4.98621C46.2023 4.97523 46.0536 4.96344 46.066 4.95291C46.0817 4.94462 46.1889 4.93743 46.3775 4.932C46.566 4.92658 46.8298 4.92311 47.1438 4.92191C48.0074 4.91461 48.7923 4.90427 49.4825 4.89111C50.4296 4.8693 51.6284 4.85459 53.0087 4.84784C53.482 4.84688 53.7624 4.83671 54.1588 4.83133C54.5553 4.82595 54.8744 4.81707 55.3464 4.81886C56.803 4.82186 57.4047 4.79823 58.2008 4.78015C58.4653 4.77273 58.608 4.76265 58.6132 4.75102C58.6185 4.73939 58.486 4.72666 58.2304 4.71423C57.7348 4.68938 57.1516 4.66497 56.49 4.64137C56.1519 4.62986 55.7359 4.61956 55.2748 4.61129C54.8136 4.60302 54.3197 4.597 53.8318 4.5937C53.4898 4.57874 53.2781 4.5632 53.2159 4.54847C53.1537 4.53374 53.243 4.52029 53.4757 4.50934C54.0782 4.48388 54.6017 4.45858 56.1772 4.45997C56.914 4.45959 57.5945 4.45589 58.1916 4.44903C59.5253 4.43616 61.1128 4.43405 62.8046 4.44289C63.2421 4.44513 63.6663 4.44581 64.0646 4.44491C66.9047 4.43825 69.5893 4.42641 72.2749 4.41274C73.6967 4.40529 75.1198 4.39509 76.6189 4.39114C80.1304 4.38083 83.2558 4.35301 86.6132 4.33477C88.3714 4.32519 89.9041 4.30595 91.1307 4.27806C91.3592 4.26994 91.5477 4.26099 91.6942 4.25131C90.7465 4.23485 89.7319 4.2236 88.7475 4.21862C87.7631 4.21365 86.842 4.21512 86.0723 4.2229C85.6679 4.232 85.1184 4.23686 84.4853 4.23693C83.8521 4.237 83.1601 4.23228 82.4865 4.2233L84.2684 4.20368C85.4557 4.19213 86.6814 4.18279 87.8298 4.16994C89.6518 4.14887 91.3181 4.12354 93.2177 4.10506C94.749 4.08951 96.0864 4.06709 97.1879 4.03848C97.9831 4.01767 98.9165 4.00043 99.9692 3.98711C100.722 3.97873 100.722 3.97873 101.092 3.94459C100.626 3.92724 100.114 3.92782 99.6399 3.93061C96.758 3.93708 94.0532 3.953 91.5803 3.97802C90.3195 3.98724 89.2312 4.00323 88.3675 4.02524C88.1668 4.03342 87.5754 4.03416 87.1022 4.03511C85.632 4.04161 84.2428 4.05193 82.951 4.06593C81.1708 4.08677 79.143 4.09829 76.9464 4.10004C76.4793 4.08727 76.953 4.08539 76.9554 4.0799C78.5804 4.05877 80.1666 4.03635 81.8305 4.01652C82.2826 4.01039 82.7726 4.00557 83.2948 4.00212C85.2642 3.99425 86.8325 3.96885 87.78 3.92946C87.7857 3.91664 88.4965 3.91337 88.7768 3.9032C88.9031 3.89518 88.9734 3.88626 88.9857 3.87671C88.443 3.85677 87.9293 3.86009 87.534 3.86272C86.3974 3.87299 85.3132 3.88527 84.2866 3.89949C83.3329 3.91286 82.2552 3.92197 81.0827 3.92655C80.2146 3.92922 79.501 3.9389 78.6322 3.94341C78.153 3.94382 77.651 3.94268 77.1363 3.94003C77.6219 3.92033 78.3279 3.90547 79.2049 3.89651C79.8416 3.88241 80.6729 3.87387 80.6844 3.84823C80.2974 3.83255 79.9418 3.83464 79.6643 3.83841C79.0715 3.84232 78.5035 3.84729 77.9633 3.85328C76.8185 3.86617 75.5581 3.87471 74.2086 3.87872C73.5008 3.88159 72.8382 3.88661 72.2317 3.8937C70.8466 3.90703 69.5383 3.92477 68.2718 3.93739C65.6614 3.95914 63.3229 3.98995 60.8294 4.01467C60.2752 4.02036 59.7978 4.03048 59.0127 4.02383C58.2276 4.01719 58.1888 4.01589 58.0736 4.00927C57.82 3.99862 57.7121 3.98737 57.7725 3.97786C57.8873 3.96858 58.1555 3.96204 58.5293 3.9594C60.7342 3.93105 62.8022 3.89815 64.7205 3.86088C65.5867 3.85018 66.3242 3.83527 66.9074 3.81666C67.3758 3.8034 67.9512 3.79284 68.6158 3.78531C69.5717 3.77157 70.5767 3.75946 71.6268 3.74902C72.1144 3.74393 72.5145 3.73582 72.8035 3.72518C73.0925 3.71454 73.2645 3.70159 73.3094 3.68707L71.8289 3.64982C71.6159 3.64905 71.4057 3.64856 71.1991 3.64835L60.5127 3.75414L59.4452 3.76225C58.2608 3.76739 57.9478 3.76254 56.6286 3.71673C59.1212 3.68712 60.9777 3.63715 62.013 3.57181C61.6878 3.56772 61.3583 3.56454 61.0322 3.56236C58.9495 3.56255 57.0161 3.57187 55.3063 3.58996C54.2784 3.59753 53.2122 3.60289 52.1455 3.60917C52.3552 3.58085 53.5767 3.58066 54.3304 3.56953C56.1499 3.54781 57.7168 3.51767 58.9807 3.48007C59.4115 3.46583 59.9767 3.45478 60.6502 3.44742C61.3313 3.44187 61.8774 3.43133 62.241 3.41672C62.6047 3.40212 62.7749 3.38388 62.7367 3.36361C62.7312 3.34506 62.8053 3.32729 62.9576 3.31057C62.4997 3.29136 61.8256 3.27456 61.0616 3.26331C60.2977 3.25205 59.4964 3.24713 58.8082 3.24944C57.3231 3.25025 55.762 3.24572 54.1647 3.23598C53.3686 3.231 52.6037 3.23021 51.9197 3.23366C51.3171 3.23683 50.6078 3.23414 49.9 3.22599C49.1922 3.21784 48.5248 3.20469 47.9997 3.18854C47.2992 3.16892 46.6383 3.14876 45.9775 3.1286C45.3167 3.10844 44.5403 3.08257 43.7634 3.05762C43.1608 3.05695 42.5798 3.05781 42.0285 3.06021C41.6075 3.06415 41.099 3.06427 40.5631 3.06058C40.0271 3.05688 39.486 3.04952 39.0037 3.03935C39.2073 3.02476 39.4497 3.01146 39.6937 2.9945C39.2035 2.97757 38.8257 2.95947 38.5831 2.94133C38.3406 2.92318 38.2385 2.90536 38.2831 2.88896C38.2897 2.87431 37.7474 2.85345 37.5189 2.83562C37.2559 2.82069 37.1596 2.80576 37.2428 2.79277C37.326 2.77979 37.5847 2.76937 37.985 2.76287C38.4729 2.75256 38.8517 2.73943 39.1057 2.72401C39.1935 2.71986 39.2266 2.71476 39.2021 2.70918C39.1776 2.7036 39.0963 2.69772 38.9655 2.69207C38.8348 2.68642 38.6588 2.68119 38.4537 2.67684C38.2486 2.6725 38.021 2.66919 37.7915 2.66721C37.0917 2.66194 36.4096 2.66005 35.7844 2.66167C34.7063 2.66416 33.68 2.66806 32.7057 2.67339C31.6263 2.67881 30.3905 2.67579 29.1239 2.66463C27.9861 2.65367 26.966 2.64385 26.3102 2.6127C25.6543 2.58155 24.8238 2.58827 24.0845 2.56735C24.3572 2.54219 24.9371 2.52208 25.7656 2.50906C26.316 2.5027 26.7576 2.49275 27.062 2.47985C27.3663 2.46695 27.5267 2.45137 27.5329 2.43413L25.3126 2.37688C23.6284 2.35422 22.8657 2.38549 21.1329 2.38351L22.7653 2.34591C22.7902 2.3431 22.7916 2.34 22.7694 2.33675C22.3984 2.28536 22.0874 2.27593 20.2037 2.2587L19.1445 2.2485L17.4937 2.23903C17.2002 2.22996 16.9826 2.21991 16.8626 2.20988C16.7426 2.19984 16.7245 2.19019 16.8101 2.18187C16.9916 2.16763 16.9991 2.15094 16.8319 2.13334C16.6326 2.12228 16.577 2.11122 16.6746 2.10208C16.7723 2.09294 17.0171 2.08631 17.3666 2.08332C17.6437 2.08047 17.6106 2.06636 17.7328 2.05742C17.8425 2.0455 18.07 2.03539 18.3997 2.02777C18.7295 2.02016 19.1538 2.01523 19.6438 2.0133C21.0776 2.00479 22.4048 1.99168 23.6017 1.97419L23.3663 1.97192C24.6821 1.97137 25.8869 1.96429 26.9219 1.951C27.9531 1.93611 29.3341 1.93194 30.4429 1.91963C31.3647 1.91456 32.0218 1.89912 32.2748 1.87659C32.5208 1.85505 33.7044 1.85174 34.6117 1.84945C35.1499 1.84829 35.6651 1.84587 36.1517 1.84221C36.7899 1.83343 37.625 1.83206 38.5177 1.83834C38.7859 1.84031 39.0436 1.84058 39.266 1.83911C41.4374 1.82969 43.6083 1.82117 45.7413 1.80954C46.2255 1.80473 46.8134 1.80433 47.4362 1.80839C47.6983 1.81021 47.946 1.81003 48.1457 1.80787C51.4693 1.77736 55.333 1.77228 58.5789 1.73918C58.9674 1.7339 59.4066 1.7304 59.884 1.72876C60.9683 1.72811 61.8721 1.71777 62.4583 1.69931C62.7751 1.68946 63.2023 1.68233 63.7129 1.67838C64.2235 1.67444 64.8062 1.67376 65.4239 1.67638C66.443 1.67851 67.3574 1.67334 68.0705 1.66142C69.4885 1.64531 70.9955 1.63247 72.5798 1.62302C73.0682 1.62089 73.484 1.61554 73.7952 1.60737C74.1063 1.59921 74.3043 1.58845 74.3739 1.57594C73.9089 1.55858 73.4753 1.559 73.0793 1.56346C71.5005 1.56941 69.9221 1.57443 68.3817 1.58258C66.9867 1.58567 65.6637 1.59264 64.4321 1.60338C63.8264 1.61024 63.0336 1.60921 62.2268 1.60053C61.2358 1.58933 60.2509 1.58707 59.4713 1.59421C58.8898 1.59859 58.2683 1.60123 57.6158 1.60209C57.1907 1.60069 56.7439 1.59638 56.3212 1.58962C56.1521 1.58658 55.9719 1.58428 55.7922 1.58287C55.6125 1.58145 55.4374 1.58096 55.2777 1.58141C55.1181 1.58186 54.9774 1.58325 54.865 1.58549C54.7526 1.58773 54.6708 1.59078 54.6247 1.59442C54.1379 1.62559 52.761 1.62061 51.6162 1.62521C49.7404 1.59059 48.5818 1.62632 46.8943 1.61099C46.7622 1.61011 46.6344 1.60989 46.519 1.61036C46.4037 1.61083 46.303 1.61197 46.2232 1.61372C43.2123 1.65 39.5823 1.66101 36.3785 1.68808C36.0259 1.69126 35.6026 1.69132 35.1569 1.68826C32.2417 1.66779 29.5411 1.67456 27.5829 1.70725C27.3423 1.71063 27.0614 1.71259 26.7529 1.71305C25.3039 1.70687 23.9516 1.7096 22.809 1.72104C20.9915 1.73203 19.2521 1.7447 17.3962 1.75349C16.1067 1.75692 15.0138 1.76985 14.2271 1.79101C14.2242 1.79742 13.6344 1.79449 13.2 1.79675C12.891 1.78273 12.621 1.77002 12.3112 1.75784C12.0159 1.74218 11.6057 1.72708 11.1087 1.71357C10.6117 1.70005 10.0394 1.68844 9.43051 1.67951C8.41043 1.66969 8.22361 1.64674 8.85997 1.63356C10.4757 1.59324 12.6014 1.5669 15.0809 1.55647C17.1358 1.54317 19.23 1.53024 21.3234 1.51914C22.5474 1.51346 23.849 1.51036 25.0342 1.50339C25.4411 1.50283 25.8627 1.5032 26.2947 1.5045C26.8282 1.507 27.3365 1.5069 27.7921 1.50421C29.2314 1.48941 30.876 1.48283 32.6475 1.48478C33.2886 1.48349 33.8972 1.48042 34.4641 1.47561C35.8001 1.46288 37.2741 1.45574 38.8473 1.45439C39.8231 1.45303 40.7605 1.44945 41.6498 1.44368C41.9658 1.44213 42.2049 1.43616 42.5195 1.43735C45.3101 1.4532 47.0998 1.41618 49.5442 1.41307C50.7219 1.40886 51.8337 1.4014 52.864 1.39079C54.9026 1.37728 57.0116 1.3669 59.1825 1.35971C62.0622 1.3525 64.6725 1.33075 67.3973 1.31746C67.9355 1.3149 68.4506 1.31126 68.9389 1.30657C71.3052 1.28134 73.9209 1.26574 76.7222 1.26017C77.3542 1.25783 77.9065 1.25178 78.3446 1.2424C78.7828 1.23301 79.0973 1.22049 79.2684 1.20561C79.3272 1.1958 79.2201 1.18428 78.9677 1.17329C78.5671 1.15978 78.1239 1.14688 77.6452 1.1348L62.136 1.1877C61.4826 1.18941 60.8499 1.19222 60.2409 1.19611C58.4505 1.20769 56.5916 1.21619 54.6737 1.22156C52.7798 1.22722 51.0006 1.24043 49.1836 1.25051C48.648 1.2534 48.0947 1.25543 47.526 1.25661C43.67 1.2616 39.9387 1.27389 36.3583 1.2934C34.8567 1.30284 33.2011 1.30436 31.6611 1.3116C30.1212 1.31883 28.027 1.33176 26.2095 1.34276L20.5973 1.38065C19.491 1.38746 18.423 1.39648 17.3555 1.40459C15.8046 1.34827 15.2979 1.33603 13.4535 1.31919C12.8195 1.31266 12.1918 1.31044 11.6438 1.31279C9.942 1.3295 7.69909 1.3226 6.07737 1.33641C5.0868 1.34163 4.27874 1.35447 3.73591 1.37362C3.25984 1.38898 2.69931 1.40238 2.063 1.4136C0.0335147 1.37014 -0.265948 1.33507 1.04477 1.31183C1.40198 1.30608 1.9153 1.30367 2.15563 1.29495C2.29258 1.2897 2.49261 1.28588 2.73975 1.28379C2.98689 1.28171 3.27431 1.28141 3.57948 1.28292C4.53547 1.28584 5.40682 1.28218 6.1061 1.27231C6.75676 1.2611 7.58692 1.2558 8.51654 1.25691C9.22275 1.26372 9.74392 1.24391 10.2993 1.23547C10.8548 1.22702 11.2933 1.21562 12.2361 1.22194C12.4095 1.2233 12.578 1.22368 12.7285 1.22306C12.8791 1.22243 13.0077 1.22083 13.1046 1.21835C14.0354 1.20395 15.186 1.19707 16.4629 1.19829C18.4011 1.19491 20.1869 1.18327 21.7584 1.16379C22.6898 1.14972 23.4569 1.13071 24.0296 1.1075C24.1812 1.10001 24.4279 1.09447 24.7461 1.09142C26.3762 1.0845 28.187 1.08754 30.0615 1.10032C30.77 1.10573 31.4696 1.10908 32.1454 1.11028C33.538 1.1137 34.8654 1.11193 36.0881 1.10505C37.8584 1.09336 39.7193 1.08577 41.6542 1.08234C42.8461 1.07966 43.9826 1.074 45.0504 1.06541C46.1508 1.05734 47.3437 1.05339 48.602 1.05364C49.8475 1.05237 50.9062 1.04117 51.6505 1.0214C51.8839 1.01187 52.0605 1.00124 52.177 0.98969C50.2606 0.967534 48.348 0.96258 46.8243 0.975827C46.2325 0.977482 45.7572 0.983018 45.0914 0.973846L45.0894 0.978424C44.9782 0.982132 44.7964 0.984053 44.5785 0.983819C44.3606 0.983585 44.122 0.981214 43.9079 0.977158C43.9157 0.959761 43.9231 0.943281 43.9284 0.931378C45.1059 0.925561 46.2409 0.917766 47.3276 0.908031C48.2382 0.898412 49.6076 0.919881 50.3638 0.903257C51.9777 0.90685 52.8957 0.88075 54.3159 0.87696C55.7361 0.873171 57.348 0.881342 58.7682 0.877552C60.0005 0.87243 61.188 0.865137 62.3242 0.855716C62.7093 0.850621 63.1663 0.848139 63.6672 0.848424C64.3779 0.850516 65.0192 0.847358 65.5176 0.839312C66.016 0.831265 66.3513 0.818655 66.4852 0.802926C66.2543 0.790587 65.9463 0.774746 65.5989 0.758526C66.0521 0.740236 66.8033 0.72877 67.7412 0.72583L69.0459 0.716329C69.3938 0.714394 69.6432 0.708598 69.7423 0.700139C69.8414 0.691681 69.7828 0.681208 69.5785 0.670885C66.8779 0.630157 66.7622 0.624445 65.0853 0.673578L62.6033 0.672656L62.6429 0.672119ZM95.927 0.610225L95.7309 0.608336L95.927 0.610225ZM420.553 4.69286L420.548 4.70293L420.553 4.69195L420.985 4.6961L420.988 4.68969L420.553 4.69286ZM345.186 0.798081C344.573 0.791249 343.957 0.785316 343.342 0.780317C343.185 0.779958 343.042 0.780602 342.925 0.782193C342.807 0.783784 342.719 0.786276 342.668 0.789457C342.664 0.800444 343.016 0.805677 343.33 0.8087C343.727 0.812938 344.123 0.814667 344.477 0.81371C344.831 0.812753 345.129 0.809144 345.342 0.803256L345.66 0.797123L345.186 0.798081ZM60.3743 5.38132C60.7582 5.38059 61.1167 5.37848 61.4411 5.37505C62.8679 5.35661 64.2174 5.33467 65.6834 5.3166C67.4936 5.2836 69.632 5.26074 72.0183 5.24889C72.9521 5.24467 73.709 5.23282 74.2008 5.21475C74.4987 5.20482 74.9042 5.19746 75.3926 5.19312L81.5688 5.12756C81.9374 5.12009 82.246 5.11102 82.4873 5.10055C81.8988 5.09488 81.5064 5.0911 81.271 5.08883C80.8086 5.09086 80.4256 5.09636 80.1606 5.1048C79.8914 5.11789 79.3815 5.12578 78.7321 5.1269C78.0787 5.12861 77.446 5.13142 76.8371 5.13531C75.6907 5.14358 74.5433 5.15368 73.3965 5.16286C73.0662 5.19646 71.6894 5.19147 70.5446 5.19608L69.6745 5.20333C66.8742 5.23841 64.225 5.27859 61.7399 5.32367C61.257 5.33172 60.8542 5.34209 60.544 5.35445C60.4428 5.36315 60.4383 5.37318 60.5309 5.38375L60.3348 5.38186L60.3743 5.38132ZM199.448 7.44751C200.15 7.44492 200.89 7.44435 201.655 7.44578C202.251 7.44849 202.824 7.44873 203.349 7.44647C206.294 7.43372 209.397 7.42912 212.615 7.43274C213.038 7.43372 213.437 7.43291 213.798 7.43035L216.331 7.40692C217.123 7.398 217.124 7.39434 216.356 7.35107C215.834 7.34518 215.309 7.34013 214.786 7.33595C214.472 7.33293 213.962 7.32802 213.88 7.33642C213.277 7.36188 211.979 7.35673 210.914 7.35934C207.837 7.36832 204.643 7.3725 201.527 7.37926C200.867 7.38024 200.233 7.38274 199.633 7.38676C199.257 7.38855 198.923 7.39217 198.643 7.39745C198.559 7.39837 198.491 7.39983 198.444 7.40176C198.397 7.40369 198.372 7.40603 198.371 7.40863C198.37 7.41122 198.392 7.41402 198.437 7.41683C198.482 7.41964 198.548 7.4224 198.63 7.42492C198.922 7.43374 199.25 7.44187 199.605 7.44902L199.448 7.44751ZM195.218 0.44672L198.184 0.421046C198.54 0.418039 198.82 0.409697 199.214 0.409814C201.293 0.404606 203.178 0.3895 204.79 0.365138C205.335 0.35595 205.993 0.350425 206.728 0.348865C208.976 0.343763 211.063 0.330153 212.932 0.308404C214.156 0.29834 215.284 0.284565 216.3 0.267283C216.372 0.264372 216.41 0.26082 216.412 0.256869C216.414 0.252919 216.379 0.248664 216.31 0.244393C216.286 0.241568 216.237 0.238675 216.169 0.235915C216.1 0.233154 216.013 0.230591 215.913 0.228403C215.812 0.226215 215.702 0.224453 215.589 0.223239C215.476 0.222025 215.362 0.221387 215.257 0.221369C213.87 0.216534 212.586 0.220232 211.509 0.23216C210.515 0.24445 209.428 0.253395 208.266 0.25885C207.159 0.265663 206.479 0.288537 205.063 0.284087C204.468 0.28348 203.965 0.288375 203.638 0.297948C202.969 0.314662 201.975 0.322022 200.831 0.318724C200.15 0.317737 199.511 0.319649 198.937 0.324387C197.552 0.337711 196.244 0.354537 194.976 0.370826C194.574 0.375325 194.137 0.378509 193.671 0.380329L187.117 0.409147C185.539 0.415088 183.96 0.420113 182.42 0.428262C181.149 0.432026 179.988 0.441317 178.979 0.45581C177.903 0.471147 176.709 0.482464 175.418 0.489548C173.44 0.507274 171.463 0.522253 169.29 0.536258C167.906 0.545919 166.484 0.554287 165.023 0.560446C164.273 0.56078 163.667 0.568688 163.319 0.582649C163.117 0.593578 162.528 0.589739 162.054 0.590697C159.494 0.586488 157.149 0.597167 155.184 0.621987C154.935 0.625555 154.656 0.628116 154.353 0.629614C152.417 0.642224 150.402 0.653163 148.545 0.665614C148.059 0.669779 147.608 0.675285 147.198 0.682063C147.268 0.688149 147.425 0.694203 147.635 0.698972C147.846 0.70374 148.094 0.706856 148.329 0.707673C150.155 0.713729 151.887 0.711767 153.454 0.701871C156.049 0.682101 158.797 0.668891 161.668 0.662375C163.907 0.660209 165.894 0.644149 167.481 0.615387C168.724 0.593532 170.427 0.587174 172.296 0.597406C173.1 0.602888 173.858 0.602154 174.464 0.595303C175.045 0.587765 175.729 0.584047 176.479 0.584365C178.055 0.583958 179.551 0.578627 180.939 0.568476C182.284 0.55569 183.514 0.537192 184.898 0.524783C186.283 0.512375 188.416 0.499822 190.118 0.483113C191.82 0.466404 193.52 0.454273 195.218 0.44672ZM69.3817 0.758186C69.6457 0.784637 70.2702 0.798009 70.8992 0.80131C73.0958 0.81997 75.1966 0.820077 76.8489 0.801613C77.7177 0.785505 78.9424 0.78123 80.2823 0.789631C81.8343 0.797293 83.2325 0.790899 84.2307 0.771575C84.4786 0.767705 84.6572 0.761844 84.7506 0.754514C84.7531 0.749021 84.7576 0.738949 84.7584 0.737118C84.6311 0.733343 84.4803 0.730067 84.3174 0.727542C84.1546 0.725017 83.9842 0.72331 83.8193 0.722554L76.8384 0.737144L75.6163 0.738245C73.363 0.734757 71.2546 0.741501 69.3817 0.758186ZM84.5551 1.10298C85.7991 1.14071 85.7994 1.13979 86.3875 1.14638C89.1981 1.17126 91.9311 1.17652 94.2613 1.16154C94.7781 1.15793 95.2005 1.15065 95.4924 1.14029C95.6547 1.13807 95.747 1.13383 95.7494 1.12852C95.7518 1.1232 95.664 1.11723 95.5052 1.11191L94.5317 1.08598C92.9328 1.08267 91.3669 1.08202 89.8436 1.08404C88.0695 1.08626 86.5282 1.09624 84.7119 1.10449L84.5551 1.10298ZM198.552 7.24945C199.788 7.30457 199.788 7.30366 201.52 7.30838C202.727 7.31187 203.882 7.31092 204.949 7.30556C206.252 7.2988 207.595 7.29334 208.898 7.2875C209.221 7.28735 209.482 7.28392 209.63 7.27787C209.778 7.27183 209.803 7.26359 209.7 7.25478C209.492 7.24585 209.189 7.2379 208.841 7.23221C208.493 7.22652 208.12 7.22343 207.784 7.22344L207.073 7.22671C206.205 7.22938 205.298 7.23076 204.468 7.23564C203.941 7.2418 203.312 7.244 202.629 7.24205C201.947 7.2401 201.229 7.23405 200.533 7.22439L198.552 7.24945ZM88.5128 0.712595C88.8204 0.721513 89.1613 0.729745 89.5262 0.737071C90.8987 0.75495 92.3013 0.76092 93.459 0.753807C94.0116 0.751774 94.4885 0.742576 95.0775 0.747329C96.1187 0.751973 97.1087 0.751522 97.994 0.746C97.994 0.746 98.2322 0.741858 98.3115 0.740782L98.3295 0.700497C97.8762 0.694238 97.4113 0.689759 96.9563 0.687268C95.4593 0.68664 94.0003 0.689136 92.5417 0.690717C91.083 0.692298 90.571 0.691963 89.624 0.694794C89.2148 0.699484 88.8426 0.705446 88.5128 0.712595ZM75.7548 5.79156L77.9706 5.85888C78.6144 5.8617 79.1956 5.85909 79.6258 5.85145C80.056 5.84381 80.3115 5.83155 80.3537 5.81655C80.4847 5.80878 80.4621 5.79873 80.2904 5.78851C80.1186 5.77828 79.8112 5.76867 79.4326 5.7617C79.0602 5.75292 78.6455 5.7456 78.2142 5.74017C77.7828 5.73475 77.344 5.73135 76.925 5.73019L75.7548 5.79156ZM90.0877 5.28595C88.7883 5.28074 87.5743 5.2832 86.5382 5.29314C85.9092 5.30552 85.0053 5.30899 84.0121 5.30283C82.1975 5.28944 80.5143 5.29367 79.3179 5.31462C79.3179 5.31462 79.3129 5.3256 79.1138 5.33012C78.9148 5.33464 79.7808 5.33655 79.977 5.33844C81.3567 5.33702 82.7373 5.33376 83.9217 5.32862C84.65 5.32361 85.4306 5.32095 86.25 5.32071C87.3808 5.32122 88.4341 5.31677 89.3688 5.30753C89.3688 5.30753 89.7256 5.30269 90.0873 5.28687L90.0877 5.28595ZM207.141 0.217674C206.487 0.206584 205.794 0.198658 205.114 0.194491C204.433 0.190324 203.783 0.190024 203.212 0.193613C202.772 0.195759 202.434 0.202117 202.251 0.211682C202.069 0.221246 202.052 0.233472 202.203 0.246424C202.674 0.25096 203.301 0.257007 203.655 0.260408C204.801 0.252142 205.753 0.238323 207.141 0.217674ZM323.541 0.740364C323.016 0.731426 322.454 0.725674 321.918 0.723766C321.382 0.721858 320.895 0.723871 320.511 0.729574C320.313 0.732262 320.504 0.745139 320.501 0.753379C320.485 0.755347 320.494 0.757602 320.527 0.759912C320.559 0.762221 320.614 0.764498 320.686 0.766504C320.758 0.768511 320.843 0.770172 320.934 0.771315C321.024 0.772458 321.117 0.77304 321.201 0.773001C321.74 0.77475 322.235 0.77302 322.643 0.767964C323.051 0.762909 323.359 0.754685 323.539 0.744027L323.541 0.740364ZM331.681 0.863842C331.579 0.85717 331.393 0.850756 331.157 0.845775C330.92 0.840793 330.649 0.837578 330.393 0.83672C329.956 0.839307 329.568 0.843953 329.244 0.85048C328.887 0.856235 329.233 0.875202 329.781 0.884155C330.012 0.887675 330.253 0.89001 330.485 0.890975C330.717 0.89194 330.934 0.891508 331.119 0.889713C331.303 0.887919 331.45 0.884811 331.547 0.880638C331.645 0.876465 331.69 0.871341 331.68 0.865673L331.681 0.863842ZM108.199 0.658562C106.986 0.640436 106.153 0.652642 105.17 0.648687C104.186 0.644732 103.95 0.645211 104.14 0.660834C104.33 0.676458 104.964 0.668771 105.395 0.672929C105.978 0.67838 106.548 0.679922 107.044 0.677385C107.539 0.674848 107.939 0.66833 108.199 0.658562ZM357.166 3.43212C356.554 3.43034 355.96 3.43016 355.394 3.43159C355.329 3.43447 355.295 3.4379 355.294 3.44167C355.292 3.44544 355.323 3.44949 355.384 3.45357C355.384 3.45357 355.812 3.46413 356.048 3.4664C356.911 3.4738 356.88 3.45511 357.166 3.43212ZM449.812 5.25795C450.279 5.27256 450.51 5.28306 450.862 5.28921C451.02 5.29111 451.18 5.29218 451.33 5.29235C451.48 5.29252 451.616 5.29179 451.729 5.2902C451.85 5.28428 451.853 5.27643 451.738 5.26823C451.738 5.26823 451.271 5.25545 451.114 5.25577C450.657 5.25508 450.221 5.25581 449.812 5.25795ZM88.6637 0.639566C87.7613 0.630873 86.8981 0.622557 86.3766 0.643281C87.791 0.652309 87.7911 0.65231 88.6637 0.639566ZM103.014 0.711596C102.04 0.686582 101.527 0.687162 101.13 0.693454C101.046 0.69493 100.996 0.697302 100.988 0.700209C100.979 0.703117 101.012 0.706402 101.082 0.709568C101.152 0.712735 101.254 0.715609 101.375 0.717758C101.495 0.719906 101.626 0.721211 101.748 0.721475C102.198 0.719365 102.621 0.716058 103.014 0.711596ZM147.075 0.428923C147.077 0.424345 147.079 0.418852 146.844 0.416584C146.779 0.415068 146.705 0.413886 146.629 0.413156C146.553 0.412427 146.478 0.412175 146.412 0.412427C146.412 0.412427 146.41 0.417921 146.408 0.421583L147.075 0.428923ZM206.153 7.60957L205.676 7.61693L205.912 7.6192L206.504 7.61755L206.153 7.60957ZM356.849 0.623535C356.653 0.621645 356.457 0.619755 356.454 0.626164C356.419 0.62739 356.4 0.628944 356.399 0.630696C356.399 0.632448 356.416 0.634347 356.449 0.636236C356.449 0.636236 356.724 0.638881 356.842 0.640015L356.849 0.623535ZM328.37 0.865971C328.248 0.866427 328.14 0.867579 328.053 0.869357L328.051 0.87485L328.443 0.87863L328.37 0.865971ZM83.4174 3.81663C83.2627 3.81434 83.1021 3.81279 82.9466 3.81209L82.7504 3.8102C82.7504 3.8102 82.9833 3.81797 83.101 3.8191C83.2187 3.82023 83.2989 3.81733 83.4174 3.81663Z" fill="#DB0D0D"/>
</svg>
